<?xml version="1.0" encoding="UTF-8"?>
<svg width="556px" height="556px" viewBox="181 277 556 556" xmlns="http://www.w3.org/2000/svg" xmlns:xlink="http://www.w3.org/1999/xlink" version="1.1">
 <!-- Generated by Pixelmator Pro 1.5.4 -->
 <g id="New-Group">
  <path id="Rounded-Rectangle" d="M331 277 C248.158 277 181 344.158 181 427 L181 683 C181 765.842 248.158 833 331 833 L587 833 C669.842 833 737 765.842 737 683 L737 427 C737 344.158 669.842 277 587 277 Z" fill="#d7171a" fill-opacity="1" stroke="none"/>
  <g id="New-Group-Copy">
   <path id="Rectangle" d="M359 775 L559 775 559 715 359 715 Z" fill="#ffffff" fill-opacity="1" stroke="none"/>
   <path id="Ellipse" d="M509 351 C509 323.386 486.614 301 459 301 431.386 301 409 323.386 409 351 409 378.614 431.386 401 459 401 486.614 401 509 378.614 509 351 Z" fill="#ffffff" fill-opacity="1" stroke="none"/>
   <path id="Path" d="M379 435 L379 495 419 495 419 615 359 615 359 675 559 675 559 615 499 615 499 435 379 435 Z" fill="#ffffff" fill-opacity="1" stroke="none"/>
  </g>
 </g>
</svg>
