<?xml version="1.0" encoding="UTF-8"?>
<svg width="1848px" height="480px" viewBox="1199 300 1848 480" xmlns="http://www.w3.org/2000/svg" xmlns:xlink="http://www.w3.org/1999/xlink" version="1.1">
 <!-- Generated by Pixelmator Pro 1.5.4 -->
 <g id="New-Group">
  <path id="Path" d="M1244.996 675.004 C1322.554 700.969 1419.999 676.001 1419.999 605.001 1419.999 591.001 1418.301 577.322 1409.999 565.001 1397.545 546.52 1370.074 537.005 1309.99 525.01 1289.396 520.899 1269.981 516.019 1269.981 505.019 1269.981 488.359 1286.98 485.02 1309.98 485.02 1333.872 485.02 1362.221 496.792 1374.953 509.047 1380.893 500.084 1419.995 465.005 1419.995 465.005 1419.995 465.005 1405.166 445.281 1374.995 435.005 1298.71 409.025 1199.999 435.001 1199.999 505.001 1199.999 519.001 1203.522 531.082 1210.026 541.532 1226.752 568.401 1263.174 574.525 1309.99 585.01 1331.458 589.818 1349.991 595.009 1349.991 605.009 1349.991 620.849 1331.981 625.019 1309.981 625.019 1285.848 625.019 1257.969 613.51 1244.953 601.047 1228.564 617.127 1199.999 645.007 1199.999 645.007 1199.999 645.007 1215.793 665.225 1244.996 675.004 Z" fill="#d7171a" fill-opacity="1" stroke="none"/>
  <g id="New-Group-1">
   <path id="Rectangle" d="M1438 775 L1638 775 1638 715 1438 715 Z" fill="#d7171a" fill-opacity="1" stroke="none"/>
   <path id="Ellipse" d="M1588 351 C1588 323.386 1565.614 301 1538 301 1510.386 301 1488 323.386 1488 351 1488 378.614 1510.386 401 1538 401 1565.614 401 1588 378.614 1588 351 Z" fill="#d7171a" fill-opacity="1" stroke="none"/>
   <path id="Path-1" d="M1458 435 L1458 495 1498 495 1498 615 1438 615 1438 675 1638 675 1638 615 1578 615 1578 435 1458 435 Z" fill="#d7171a" fill-opacity="1" stroke="none"/>
  </g>
  <path id="Path-2" d="M1666 435 L1666 495 1686 495 1686 615 1666 615 1666 675 1787 675 1787 615 1766 615 C1766 615 1766 563 1766 528 1766 510 1782.915 496 1798 496 1816 496 1826 513.827 1826 528 1826 549 1826 615 1826 615 L1806 615 1806 675 1927 675 1927 615 1906 615 C1906 615 1906 560 1906 529 1906 483 1899 435 1836 435 1773 435 1756 474 1756 474 L1756 435 1666 435 Z" fill="#d7171a" fill-opacity="1" stroke="none"/>
  <path id="Path-3" d="M2061.999 779 C2017.796 779 1965.948 759.453 1949.999 708.002 1957.134 706.165 2006.457 690.404 2021.997 686.002 2036.533 726.002 2110.969 716.03 2110.969 675.03 2110.969 666.03 2109.993 667.008 2109.993 667.008 2109.993 667.008 2087.995 675.006 2060.995 675.006 1987.995 675.006 1941.997 628.014 1941.997 560.014 1941.997 475.014 1993.706 434.504 2061.995 435.006 2085.994 435.183 2108.993 440.006 2108.993 440.006 2108.993 440.006 2109.977 435.024 2109.977 435.024 L2209.962 435.037 2209.962 495.037 2189.962 495.037 C2189.962 495.037 2189.991 613.01 2189.991 675.01 2189.991 765.01 2114.999 779 2061.999 779 Z M2068.661 615 C2086.171 615 2109.253 607.041 2109.253 591.918 2109.253 578.81 2109.216 527.816 2109.251 510.735 2100.186 499.141 2088.817 494.819 2068.919 494.819 2045.038 494.819 2013.743 513.12 2013.743 556.1 2013.743 587.31 2032.048 615 2068.661 615 Z" fill="#d7171a" fill-opacity="1" stroke="none"/>
  <path id="Path-4" d="M2210 315.004 L2210 375.004 2250 375.004 C2250 375.004 2250 527.003 2250 595.003 2250 653.003 2296.673 674.371 2330 675.004 2347.765 675.337 2369 675.004 2369 675.004 2369 675.004 2369 634.004 2369 615.004 2343 615.004 2330 607.133 2330 580.001 2330 514.001 2330 315.004 2330 315.004 L2210 315.004 Z" fill="#d7171a" fill-opacity="1" stroke="none"/>
  <path id="Path-5" d="M2515.993 685 C2433.107 685 2386.473 629.462 2386.999 555.018 2387.521 481.041 2428.791 425.01 2515.989 425.01 2589.373 425.01 2636.92 470.664 2628.997 576.004 2620.163 575.901 2467.999 576.002 2467.999 576.002 2467.999 576.002 2467.497 625.107 2516.489 626.012 2549.891 626.629 2567.999 591 2567.999 591 2567.999 591 2615.33 616.36 2626.991 623.008 2609.847 653.736 2577.993 685 2515.993 685 Z M2467.999 524 C2493.179 524.01 2540.661 523.99 2558.999 523.997 2558.999 512.998 2558.997 484.84 2515.999 485.002 2480.038 485.138 2467.999 512.002 2467.999 524 Z" fill="#d7171a" fill-opacity="1" stroke="none"/>
  <path id="Ellipse-1" d="M2758 635 C2758 607.386 2735.614 585 2708 585 2680.386 585 2658 607.386 2658 635 2658 662.614 2680.386 685 2708 685 2735.614 685 2758 662.614 2758 635 Z" fill="#d7171a" fill-opacity="1" stroke="none"/>
  <path id="Path-6" d="M2712 435 L2852 435 2852 495 2827 495 2879 602 2931 495 2906 495 2906 435 3046 435 3046 495 3021 495 2931 675 C2931 675 2827 675 2827 675 2827 675 2737 495 2737 495 L2712 495 2712 435 Z" fill="#ffffff" fill-opacity="1" stroke="none"/>
 </g>
</svg>
